<?xml version="1.0" encoding="UTF-8" standalone="no"?>
<svg width="196px" height="40px" viewBox="0 0 196 40" version="1.1" xmlns="http://www.w3.org/2000/svg" xmlns:xlink="http://www.w3.org/1999/xlink" xmlns:sketch="http://www.bohemiancoding.com/sketch/ns">
    <title>Pixel Union Logo 3.0 (scaled)</title>
    <defs></defs>
    <g id="Page-1" stroke="none" stroke-width="1" fill="none" fill-rule="evenodd" sketch:type="MSPage">
        <g id="Index-2" sketch:type="MSArtboardGroup" transform="translate(-44.000000, -33.000000)" fill="#FFFFFF">
            <g id="1.-Hero-(alt)" sketch:type="MSLayerGroup">
                <g id="Pixel-Union-Logo-3.0-(scaled)" transform="translate(44.000000, 33.000000)" sketch:type="MSShapeGroup">
                    <path d="M20.1975533,37.3913043 C15.755611,37.3913043 11.5159602,35.7446754 8.25952671,32.7544572 C8.19828939,32.698088 8.16291439,32.6194948 8.1615766,32.5367807 C8.16023895,32.4539194 8.19323574,32.3741489 8.25268961,32.3160135 L10.1931131,30.4200648 C10.3081563,30.3079151 10.4915712,30.3032054 10.6122624,30.409468 C13.2426473,32.7320861 16.7364501,34.0641954 20.1975533,34.0641954 C28.0291056,34.0641954 34.4007698,27.7549631 34.4007698,20 C34.4007698,12.2450369 28.0291056,5.93580457 20.1975533,5.93580457 C12.3658524,5.93580457 5.99433683,12.2450369 5.99433683,20 C5.99433683,21.2546937 6.16184797,22.5002621 6.49226251,23.7021188 C6.51143629,23.7533369 6.69425678,24.2156234 7.00861879,24.2156234 C7.12678322,24.2156234 7.27199906,24.1543972 7.42925435,24.038568 L14.8220377,16.9746063 C14.9424316,16.8599545 15.133427,16.8614263 15.2514427,16.9784328 L15.4504643,17.1755044 L21.989491,23.9498196 C21.9970713,23.9582088 22.1946065,24.1673489 22.4413399,24.1673489 C22.5895285,24.1673489 22.7412843,24.0880199 22.8924456,23.9318639 L26.1564594,20.8306733 C26.3044994,20.679963 26.378668,20.5257203 26.3759926,20.366032 C26.371385,20.098315 26.1506627,19.8857898 26.1484332,19.8837293 C26.1453118,19.8806386 26.1402583,19.8759289 26.1372855,19.8726909 L20.0089362,13.5326984 C19.9002843,13.426583 19.7885111,13.3697722 19.6826834,13.3697722 C19.5211176,13.3697722 19.3924001,13.4973757 19.3913597,13.4987003 C19.386752,13.5035572 19.382293,13.5082668 19.3773881,13.5126821 L18.6321347,14.2185485 C18.5499398,14.2965529 18.4308835,14.3224562 18.3231235,14.2871336 C18.2153634,14.2513692 18.1362899,14.1593829 18.1180078,14.0482634 L17.1792323,8.37130832 C17.1631797,8.27402358 17.1958794,8.17482559 17.2670753,8.10579903 C17.3381226,8.03662524 17.4387481,8.00630656 17.5368469,8.02382086 L23.3246747,9.07408403 C23.4374884,9.0945417 23.5293444,9.17563686 23.5627873,9.28425429 C23.5959328,9.39287187 23.565314,9.51076151 23.4831191,9.58994328 L22.6914918,10.3527677 C22.4469879,10.6696421 22.7412843,10.9660589 22.8035622,11.0228696 C22.8080212,11.0269906 22.8141152,11.0328777 22.8185743,11.0372932 L30.6160893,19.0683624 C30.6388304,19.0908807 31.2809314,19.7358153 31.2525423,20.5594242 C31.2364897,21.0253901 31.0154701,21.4448477 30.5961722,21.8063173 L23.7316361,28.3286635 C23.7240557,28.3361696 23.7157321,28.3429398 23.70726,28.3495628 C23.2447094,28.7044093 22.7692276,28.884261 22.2937457,28.884261 C21.468973,28.884261 20.9555894,28.3374942 20.9340372,28.31424 L15.4549233,22.6238918 C15.2596176,22.4123968 15.072784,22.3074588 14.8954631,22.3074588 C14.6519998,22.3074588 14.4714088,22.5040887 14.4697739,22.5060021 C14.4630854,22.5136554 14.4562481,22.5210142 14.448965,22.5279316 L8.39627056,28.277887 L6.33396668,30.1589708 C6.26931075,30.2179892 6.18250808,30.2469833 6.0943679,30.2375639 C6.0068222,30.2284389 5.92745125,30.1826665 5.87646965,30.1114322 C3.7857767,27.1964221 2.63445378,23.60557 2.63445378,20 C2.63445378,10.4104614 10.5132719,2.60869565 20.1975533,2.60869565 C29.8816861,2.60869565 37.7605042,10.4104614 37.7605042,20 C37.7605042,29.5895386 29.8816861,37.3913043 20.1975533,37.3913043 L20.1975533,37.3913043 Z M0,20 C0,31.0455291 9.0428231,40 20.1975526,40 C31.3531656,40 40.394958,31.0455291 40.394958,20 C40.394958,8.95447093 31.3531656,0 20.1975526,0 C9.0428231,0 0,8.95447093 0,20 L0,20 Z" id="Roundel-2"></path>
                    <path d="M52.8341849,10.733913 L60.2247059,10.733913 C61.2550752,10.733913 62.2292279,10.8266657 63.1471933,11.0121739 C64.0651587,11.1976821 64.8660246,11.5176789 65.5498151,11.9721739 C66.2336057,12.4266689 66.7768831,13.0388367 67.1796639,13.8086957 C67.5824446,14.5785546 67.7838319,15.5478202 67.7838319,16.7165217 C67.7838319,17.8666724 67.5964949,18.8313005 67.2218151,19.6104348 C66.8471354,20.3895691 66.3319585,21.0110122 65.6762689,21.4747826 C65.0205794,21.938553 64.2431305,22.2678251 63.3438992,22.4626087 C62.4446678,22.6573923 61.470515,22.7547826 60.4214118,22.7547826 L57.217916,22.7547826 L57.217916,30.4347826 L52.8341849,30.4347826 L52.8341849,10.733913 Z M57.217916,19.0817391 L60.1404034,19.0817391 C60.5338171,19.0817391 60.9131746,19.0446381 61.2784874,18.9704348 C61.6438001,18.8962315 61.97164,18.7710154 62.2620168,18.5947826 C62.5523936,18.4185498 62.7865649,18.1773928 62.9645378,17.8713043 C63.1425107,17.5652159 63.2314958,17.1802922 63.2314958,16.7165217 C63.2314958,16.2156497 63.1144101,15.8121754 62.8802353,15.506087 C62.6460605,15.1999985 62.3463212,14.9634791 61.9810084,14.7965217 C61.6156957,14.6295644 61.2082375,14.5228988 60.7586218,14.4765217 C60.3090062,14.4301447 59.8781309,14.4069565 59.4659832,14.4069565 L57.217916,14.4069565 L57.217916,19.0817391 Z M69.7087395,16.9113043 L73.9238655,16.9113043 L73.9238655,30.4347826 L69.7087395,30.4347826 L69.7087395,16.9113043 Z M69.3715294,12.653913 C69.3715294,11.9860836 69.6103842,11.4156545 70.0881008,10.9426087 C70.5658175,10.4695629 71.141879,10.2330435 71.8163025,10.2330435 C72.4907261,10.2330435 73.0667875,10.4695629 73.5445042,10.9426087 C74.0222209,11.4156545 74.2610756,11.9860836 74.2610756,12.653913 C74.2610756,13.3217425 74.0222209,13.8921715 73.5445042,14.3652174 C73.0667875,14.8382632 72.4907261,15.0747826 71.8163025,15.0747826 C71.141879,15.0747826 70.5658175,14.8382632 70.0881008,14.3652174 C69.6103842,13.8921715 69.3715294,13.3217425 69.3715294,12.653913 L69.3715294,12.653913 Z M80.2887059,23.2 L75.7363697,16.9113043 L80.7102185,16.9113043 L83.1268907,20.5843478 L85.4592605,16.9113043 L90.1521008,16.9113043 L85.7121681,23.2 L90.9670252,30.4347826 L85.9931765,30.4347826 L83.0144874,25.9269565 L79.8109916,30.4347826 L74.8933445,30.4347826 L80.2887059,23.2 Z M104.806689,28.0973913 C104.132266,28.9507289 103.279882,29.609273 102.249513,30.0730435 C101.219143,30.5368139 100.151322,30.7686957 99.0460168,30.7686957 C97.9969135,30.7686957 97.0087105,30.6017408 96.0813781,30.2678261 C95.1540458,29.9339114 94.3484964,29.456235 93.6647059,28.8347826 C92.9809153,28.2133302 92.4423213,27.466671 92.0489075,26.5947826 C91.6554938,25.7228942 91.4587899,24.7489909 91.4587899,23.6730435 C91.4587899,22.5970961 91.6554938,21.6231928 92.0489075,20.7513043 C92.4423213,19.8794159 92.9809153,19.1327567 93.6647059,18.5113043 C94.3484964,17.889852 95.1540458,17.4121756 96.0813781,17.0782609 C97.0087105,16.7443462 97.9969135,16.5773913 99.0460168,16.5773913 C100.020184,16.5773913 100.905352,16.7443462 101.701546,17.0782609 C102.497741,17.4121756 103.172154,17.889852 103.724807,18.5113043 C104.277459,19.1327567 104.703651,19.8794159 105.003395,20.7513043 C105.303139,21.6231928 105.453008,22.5970961 105.453008,23.6730435 L105.453008,24.9808696 L95.673916,24.9808696 C95.8425218,25.7785547 96.2078291,26.4139107 96.7698487,26.8869565 C97.3318683,27.3600024 98.0250155,27.5965217 98.8493109,27.5965217 C99.5424684,27.5965217 100.127897,27.4434798 100.605613,27.1373913 C101.08333,26.8313028 101.500155,26.4371039 101.856101,25.9547826 L104.806689,28.0973913 Z M101.237882,22.1426087 C101.256616,21.4376776 101.022445,20.8347851 100.535361,20.333913 C100.048278,19.833041 99.4206985,19.5826087 98.652605,19.5826087 C98.1842553,19.5826087 97.7721138,19.6568109 97.4161681,19.8052174 C97.0602223,19.9536239 96.7557996,20.143767 96.5028907,20.3756522 C96.2499819,20.6075374 96.053278,20.8765202 95.9127731,21.1826087 C95.7722682,21.4886972 95.6926499,21.808694 95.673916,22.1426087 L101.237882,22.1426087 Z M107.715126,9.39826087 L111.930252,9.39826087 L111.930252,30.4347826 L107.715126,30.4347826 L107.715126,9.39826087 Z M139.890588,22.8382609 C139.890588,24.0069624 139.712618,25.0828936 139.356672,26.066087 C139.000726,27.0492803 138.471499,27.9026051 137.768975,28.626087 C137.06645,29.3495688 136.190649,29.9153603 135.141546,30.3234783 C134.092443,30.7315962 132.884119,30.9356522 131.516538,30.9356522 C130.130223,30.9356522 128.912532,30.7315962 127.863429,30.3234783 C126.814325,29.9153603 125.938524,29.3495688 125.236,28.626087 C124.533475,27.9026051 124.004248,27.0492803 123.648302,26.066087 C123.292357,25.0828936 123.114387,24.0069624 123.114387,22.8382609 L123.114387,10.733913 L127.498118,10.733913 L127.498118,22.6713043 C127.498118,23.2834813 127.59647,23.8492728 127.793176,24.3686957 C127.989883,24.8881185 128.266205,25.3379691 128.622151,25.7182609 C128.978097,26.0985526 129.404289,26.3953613 129.900739,26.6086957 C130.39719,26.8220301 130.935784,26.9286957 131.516538,26.9286957 C132.097291,26.9286957 132.631202,26.8220301 133.118286,26.6086957 C133.605369,26.3953613 134.026878,26.0985526 134.382823,25.7182609 C134.738769,25.3379691 135.015091,24.8881185 135.211798,24.3686957 C135.408505,23.8492728 135.506857,23.2834813 135.506857,22.6713043 L135.506857,10.733913 L139.890588,10.733913 L139.890588,22.8382609 Z M143.051933,16.9113043 L147.098454,16.9113043 L147.098454,18.7478261 L147.154655,18.7478261 C147.285793,18.4881146 147.47313,18.2284071 147.716672,17.9686957 C147.960214,17.7089842 148.250587,17.4771025 148.587798,17.2730435 C148.92501,17.0689845 149.309051,16.9020296 149.739933,16.7721739 C150.170814,16.6423182 150.639157,16.5773913 151.144975,16.5773913 C152.212812,16.5773913 153.074563,16.7397085 153.730252,17.0643478 C154.385942,17.3889871 154.896435,17.8388377 155.261748,18.413913 C155.627061,18.9889884 155.875282,19.6660831 156.00642,20.4452174 C156.137558,21.2243517 156.203126,22.0684013 156.203126,22.9773913 L156.203126,30.4347826 L151.988,30.4347826 L151.988,23.8121739 C151.988,23.4226067 151.97395,23.0191325 151.945849,22.6017391 C151.917748,22.1843457 151.833446,21.7994221 151.692941,21.4469565 C151.552436,21.094491 151.336999,20.8069576 151.046622,20.5843478 C150.756245,20.361738 150.33942,20.2504348 149.796134,20.2504348 C149.252849,20.2504348 148.812607,20.3478251 148.475395,20.5426087 C148.138183,20.7373923 147.880595,20.9970998 147.702622,21.3217391 C147.524649,21.6463784 147.407563,22.0127516 147.351361,22.4208696 C147.295159,22.8289875 147.267059,23.2556499 147.267059,23.7008696 L147.267059,30.4347826 L143.051933,30.4347826 L143.051933,16.9113043 Z M158.886756,16.9113043 L163.101882,16.9113043 L163.101882,30.4347826 L158.886756,30.4347826 L158.886756,16.9113043 Z M158.549546,12.653913 C158.549546,11.9860836 158.788401,11.4156545 159.266118,10.9426087 C159.743834,10.4695629 160.319896,10.2330435 160.994319,10.2330435 C161.668743,10.2330435 162.244804,10.4695629 162.722521,10.9426087 C163.200238,11.4156545 163.439092,11.9860836 163.439092,12.653913 C163.439092,13.3217425 163.200238,13.8921715 162.722521,14.3652174 C162.244804,14.8382632 161.668743,15.0747826 160.994319,15.0747826 C160.319896,15.0747826 159.743834,14.8382632 159.266118,14.3652174 C158.788401,13.8921715 158.549546,13.3217425 158.549546,12.653913 L158.549546,12.653913 Z M165.279697,23.6730435 C165.279697,22.5970961 165.476401,21.6231928 165.869815,20.7513043 C166.263229,19.8794159 166.801823,19.1327567 167.485613,18.5113043 C168.169404,17.889852 168.974953,17.4121756 169.902286,17.0782609 C170.829618,16.7443462 171.817821,16.5773913 172.866924,16.5773913 C173.916028,16.5773913 174.904231,16.7443462 175.831563,17.0782609 C176.758895,17.4121756 177.564445,17.889852 178.248235,18.5113043 C178.932026,19.1327567 179.47062,19.8794159 179.864034,20.7513043 C180.257447,21.6231928 180.454151,22.5970961 180.454151,23.6730435 C180.454151,24.7489909 180.257447,25.7228942 179.864034,26.5947826 C179.47062,27.466671 178.932026,28.2133302 178.248235,28.8347826 C177.564445,29.456235 176.758895,29.9339114 175.831563,30.2678261 C174.904231,30.6017408 173.916028,30.7686957 172.866924,30.7686957 C171.817821,30.7686957 170.829618,30.6017408 169.902286,30.2678261 C168.974953,29.9339114 168.169404,29.456235 167.485613,28.8347826 C166.801823,28.2133302 166.263229,27.466671 165.869815,26.5947826 C165.476401,25.7228942 165.279697,24.7489909 165.279697,23.6730435 L165.279697,23.6730435 Z M169.494823,23.6730435 C169.494823,24.6933384 169.789879,25.5188374 170.38,26.1495652 C170.970121,26.780293 171.799087,27.0956522 172.866924,27.0956522 C173.934762,27.0956522 174.763728,26.780293 175.353849,26.1495652 C175.943969,25.5188374 176.239025,24.6933384 176.239025,23.6730435 C176.239025,22.6527485 175.943969,21.8272495 175.353849,21.1965217 C174.763728,20.5657939 173.934762,20.2504348 172.866924,20.2504348 C171.799087,20.2504348 170.970121,20.5657939 170.38,21.1965217 C169.789879,21.8272495 169.494823,22.6527485 169.494823,23.6730435 L169.494823,23.6730435 Z M182.575765,16.9113043 L186.622286,16.9113043 L186.622286,18.7478261 L186.678487,18.7478261 C186.809625,18.4881146 186.996962,18.2284071 187.240504,17.9686957 C187.484046,17.7089842 187.774418,17.4771025 188.11163,17.2730435 C188.448842,17.0689845 188.832883,16.9020296 189.263765,16.7721739 C189.694646,16.6423182 190.162989,16.5773913 190.668807,16.5773913 C191.736644,16.5773913 192.598394,16.7397085 193.254084,17.0643478 C193.909774,17.3889871 194.420267,17.8388377 194.78558,18.413913 C195.150893,18.9889884 195.399114,19.6660831 195.530252,20.4452174 C195.66139,21.2243517 195.726958,22.0684013 195.726958,22.9773913 L195.726958,30.4347826 L191.511832,30.4347826 L191.511832,23.8121739 C191.511832,23.4226067 191.497782,23.0191325 191.469681,22.6017391 C191.44158,22.1843457 191.357278,21.7994221 191.216773,21.4469565 C191.076268,21.094491 190.860831,20.8069576 190.570454,20.5843478 C190.280077,20.361738 189.863252,20.2504348 189.319966,20.2504348 C188.776681,20.2504348 188.336439,20.3478251 187.999227,20.5426087 C187.662015,20.7373923 187.404427,20.9970998 187.226454,21.3217391 C187.048481,21.6463784 186.931395,22.0127516 186.875193,22.4208696 C186.818991,22.8289875 186.790891,23.2556499 186.790891,23.7008696 L186.790891,30.4347826 L182.575765,30.4347826 L182.575765,16.9113043 Z" id="Pixel-Union-2"></path>
                </g>
            </g>
        </g>
    </g>
</svg>
