<svg width="416" height="829" fill="none" xmlns="http://www.w3.org/2000/svg"><mask id="a" fill="#fff"><path fill-rule="evenodd" clip-rule="evenodd" d="M0 67C0 29.997 29.997 0 67 0h282c37.003 0 67 29.997 67 67v695c0 37.003-29.997 67-67 67H67c-37.003 0-67-29.997-67-67V67zm27-5c0-20.434 16.566-37 37-37h39a4 4 0 014 4v4.69C107 44.355 115.646 53 126.31 53h163.38C300.354 53 309 44.355 309 33.69V29a4 4 0 014-4h39c20.435 0 37 16.566 37 37v705c0 20.435-16.565 37-37 37H64c-20.434 0-37-16.565-37-37V62z"/></mask><path fill-rule="evenodd" clip-rule="evenodd" d="M0 67C0 29.997 29.997 0 67 0h282c37.003 0 67 29.997 67 67v695c0 37.003-29.997 67-67 67H67c-37.003 0-67-29.997-67-67V67zm27-5c0-20.434 16.566-37 37-37h39a4 4 0 014 4v4.69C107 44.355 115.646 53 126.31 53h163.38C300.354 53 309 44.355 309 33.69V29a4 4 0 014-4h39c20.435 0 37 16.566 37 37v705c0 20.435-16.565 37-37 37H64c-20.434 0-37-16.565-37-37V62z" fill="#000"/><path d="M67-2C28.892-2-2 28.892-2 67h4C2 31.102 31.102 2 67 2v-4zm282 0H67v4h282v-4zm69 69c0-38.108-30.892-69-69-69v4c35.898 0 65 29.102 65 65h4zm0 695V67h-4v695h4zm-69 69c38.108 0 69-30.892 69-69h-4c0 35.898-29.102 65-65 65v4zm-282 0h282v-4H67v4zm-69-69c0 38.108 30.892 69 69 69v-4c-35.898 0-65-29.102-65-65h-4zm0-695v695h4V67h-4zm66-44c-21.54 0-39 17.46-39 39h4c0-19.33 15.67-35 35-35v-4zm39 0H64v4h39v-4zm6 6a6 6 0 00-6-6v4a2 2 0 012 2h4zm0 4.69V29h-4v4.69h4zM126.31 51C116.75 51 109 43.25 109 33.69h-4C105 45.459 114.541 55 126.31 55v-4zm163.38 0H126.31v4h163.38v-4zM307 33.69c0 9.56-7.75 17.31-17.31 17.31v4C301.459 55 311 45.459 311 33.69h-4zm0-4.69v4.69h4V29h-4zm6-6a6 6 0 00-6 6h4a2 2 0 012-2v-4zm39 0h-39v4h39v-4zm39 39c0-21.54-17.461-39-39-39v4c19.33 0 35 15.67 35 35h4zm0 705V62h-4v705h4zm-39 39c21.539 0 39-17.461 39-39h-4c0 19.33-15.67 35-35 35v4zm-288 0h288v-4H64v4zm-39-39c0 21.539 17.46 39 39 39v-4c-19.33 0-35-15.67-35-35h-4zm0-705v705h4V62h-4z" fill="#4F4F4F" mask="url(#a)"/><rect x="183" y="30" width="50" height="6" rx="3" stroke="#3C3C3C" stroke-width="2"/><rect x="246" y="27" width="11" height="11" rx="5.5" stroke="#3C3C3C" stroke-width="2"/></svg>